<?xml version="1.0" encoding="utf-8"?>
<!-- Generator: Adobe Illustrator 16.0.0, SVG Export Plug-In . SVG Version: 6.00 Build 0)  -->
<!DOCTYPE svg PUBLIC "-//W3C//DTD SVG 1.1//EN" "http://www.w3.org/Graphics/SVG/1.1/DTD/svg11.dtd">
<svg version="1.1" xmlns="http://www.w3.org/2000/svg" xmlns:xlink="http://www.w3.org/1999/xlink" x="0px" y="0px"
	 width="610.077px" height="161.01px" viewBox="0 0 610.077 161.01" enable-background="new 0 0 610.077 161.01"
	 xml:space="preserve">
<g id="Layer_1">
	<path fill="#FFFFFF" d="M411.461,130.647l-13.305-35.161h5.013l11.058,29.44l8.164-25.133h3.918l8.101,25.133l11.249-29.44h5.013
		l-13.37,35.161h-5.463l-7.521-23.333l-7.392,23.333H411.461z"/>
	<path fill="#FFFFFF" d="M487.355,114.771h-31.818c0.128,3.3,1.543,6.149,4.243,8.549c2.698,2.4,5.697,3.6,8.999,3.6
		c2.655,0,5.163-0.696,7.52-2.089c2.355-1.392,4.05-3.267,5.079-5.624h4.947c-1.242,3.558-3.47,6.492-6.685,8.806
		c-3.214,2.314-6.686,3.471-10.413,3.471c-5.143,0-9.503-1.778-13.081-5.335c-3.577-3.556-5.365-7.906-5.365-13.049
		c0-5.099,1.777-9.438,5.334-13.016c3.557-3.578,7.885-5.368,12.983-5.368c5.744,0,10.456,2.272,14.144,6.813
		C485.854,104.701,487.227,109.115,487.355,114.771z M455.537,110.464h27.061c-0.6-3.128-2.186-5.774-4.756-7.938
		c-2.572-2.163-5.464-3.247-8.678-3.247c-3.344,0-6.311,1.061-8.903,3.182C457.668,104.583,456.093,107.25,455.537,110.464z"/>
	<path fill="#FFFFFF" d="M492.765,130.647V83.146h4.755v18.897c1.035-2.313,2.863-4.156,5.487-5.527
		c2.367-1.2,4.946-1.801,7.744-1.801c5.204,0,9.69,1.748,13.454,5.239c3.766,3.493,5.648,7.811,5.648,12.953
		c0,4.671-1.388,8.572-4.163,11.698c-4.054,4.586-8.834,6.878-14.34,6.878c-2.732,0-5.337-0.579-7.812-1.735
		c-2.773-1.242-4.781-2.957-6.02-5.143h-0.257v6.042H492.765z M510.956,99.279c-3.901,0-7.242,1.415-10.028,4.242
		c-2.485,2.53-3.729,5.808-3.729,9.834c0,3.857,1.371,7.083,4.115,9.674c2.74,2.593,6.063,3.889,9.961,3.889
		c3.814,0,7.071-1.36,9.771-4.082s4.05-5.988,4.05-9.803c0-3.942-1.371-7.221-4.114-9.834
		C518.239,100.587,514.898,99.279,510.956,99.279z"/>
	<path fill="none" d="M174.353,72.079c-2.141-2.245-4.735-4.002-7.773-5.275c-3.038-1.274-6.329-1.91-9.87-1.91
		c-7.422,0-13.514,2.459-18.272,7.373c-4.757,4.917-7.14,11.142-7.14,18.678c0,6.886,2.467,12.701,7.399,17.44
		c4.935,4.743,10.837,7.112,17.719,7.112c4.781,0,9.066-1.107,12.854-3.333c3.788-2.217,6.72-5.265,8.784-9.131
		c2.065-3.866,3.103-8.196,3.103-12.99c0-3.591-0.602-6.921-1.795-9.99C178.163,76.982,176.497,74.326,174.353,72.079z"/>
	<path fill="none" d="M358.196,68.297c-3.839-2.267-8.024-3.404-12.559-3.404c-3.038,0-6.167,0.699-9.382,2.097
		c-3.212,1.396-5.914,3.292-8.109,5.687c-4.681,4.742-7.025,10.63-7.025,17.668c0,4.44,1.084,8.62,3.251,12.538
		c2.169,3.92,5.134,7,8.897,9.245c3.757,2.245,7.884,3.369,12.368,3.369c4.734,0,8.993-1.107,12.778-3.333
		c3.788-2.217,6.754-5.276,8.898-9.169c2.143-3.894,3.211-8.108,3.211-12.649c0-4.541-1.093-8.785-3.286-12.725
		C365.046,73.678,362.034,70.571,358.196,68.297z"/>
	<path fill="none" d="M263.188,68.375c-3.74-2.324-7.883-3.482-12.425-3.482c-4.688,0-8.933,1.124-12.724,3.368
		c-3.792,2.245-6.777,5.316-8.949,9.208c-2.168,3.893-3.254,8.135-3.254,12.728c0,7.836,2.645,14.124,7.934,18.863
		c2.295,1.997,4.895,3.567,7.784,4.715c2.896,1.151,5.716,1.722,8.46,1.722c4.691,0,8.972-1.132,12.838-3.406
		c3.87-2.27,6.891-5.351,9.061-9.245c2.17-3.891,3.255-8.16,3.255-12.802c0-4.339-1.06-8.456-3.179-12.349
		C269.863,73.8,266.933,70.693,263.188,68.375z"/>
	<path fill="#FFFFFF" d="M110.896,86.706v-44.83c0-12.151-9.849-22-21.997-22L21.996,30.895C9.845,30.895,0,40.745,0,52.896v66.901
		c0,12.148,9.845,21.998,21.996,21.998h66.902c12.148,0,21.997-9.849,21.997-21.998V93.629c-0.065-1.129-0.108-2.271-0.108-3.433
		C110.787,89.024,110.826,87.861,110.896,86.706z M85.044,127.368c-7.753,5.349-17.118,8.024-28.079,8.024
		c-15.786,0-30.36-5.683-43.73-17.053l14.287-14.443c8.84,9.497,19.043,14.242,30.58,14.242c4.426,0,8.521-0.936,12.278-2.804
		c4.699-2.266,7.038-5.396,7.038-9.405c0-5.866-4.277-9.603-12.842-11.208l-11.83-2.25c-10.566-2.009-18.391-4.548-23.468-7.623
		C21.662,80.166,17.84,73.481,17.84,64.783c0-9.897,4.021-17.789,12.042-23.676c7.09-5.35,15.781-8.024,26.075-8.024
		c13.106,0,25.944,4.486,38.521,13.441L82.599,61.167c-8.589-7.223-17.322-10.832-26.174-10.832c-4.296,0-8.187,0.942-11.674,2.81
		c-4.162,2.274-6.243,5.412-6.243,9.429c0,5.217,4.272,8.623,12.842,10.236l21.054,4.007c17.126,3.205,25.684,11.838,25.684,25.88
		C98.087,113.13,93.737,121.349,85.044,127.368z"/>
	<path fill="#FFFFFF" d="M181.83,59.653c-3.345-4.789-7.474-8.432-12.393-10.93c-4.913-2.495-10.289-3.741-16.131-3.741
		c-6.238,0-11.991,1.197-17.257,3.592c-5.264,2.394-10.042,6.091-14.332,11.079c-2.696,3.096-4.829,6.201-6.4,9.321
		c-1.571,3.121-2.725,6.489-3.444,10.105c-0.5,2.5-0.823,5.043-0.978,7.626v6.924c0.614,10.648,4.117,19.811,10.522,27.483
		c3.843,4.541,8.434,8.059,13.773,10.554s11.181,3.741,17.52,3.741c5.389,0,10.764-1.298,16.132-3.891
		c5.362-2.593,9.593-6.065,12.686-10.404h0.302v11.527h18.788V47.676H181.83V59.653z M178.053,103.033
		c-2.064,3.866-4.996,6.914-8.784,9.131c-3.787,2.225-8.072,3.333-12.854,3.333c-6.882,0-12.784-2.369-17.719-7.112
		c-4.933-4.739-7.399-10.554-7.399-17.44c0-7.537,2.383-13.761,7.14-18.678c4.759-4.914,10.851-7.373,18.272-7.373
		c3.541,0,6.832,0.636,9.87,1.91c3.038,1.273,5.633,3.03,7.773,5.275c2.145,2.247,3.811,4.903,5.008,7.975
		c1.193,3.069,1.795,6.399,1.795,9.99C181.155,94.837,180.118,99.167,178.053,103.033z"/>
	<path fill="#FFFFFF" d="M110.787,90.196c0,1.163,0.043,2.304,0.108,3.433v-6.924C110.826,87.861,110.787,89.024,110.787,90.196z"/>
	<path fill="#FFFFFF" d="M290.137,67.625c-1.843-3.466-3.967-6.424-6.361-8.869c-4.242-4.841-8.846-8.348-13.811-10.52
		c-4.967-2.17-10.641-3.253-17.029-3.253c-11.979,0-21.061,4.59-27.246,13.773h-0.377v-11.08h-18.64V161.01h20.362v-37.58h0.299
		c6.239,7.988,14.771,11.978,25.602,11.978c5.988,0,11.61-1.198,16.877-3.592c5.268-2.394,9.846-5.727,13.74-9.994
		c3.892-4.268,6.859-9.12,8.907-14.559c2.046-5.438,3.069-11.128,3.069-17.067c0-3.894-0.438-7.763-1.309-11.604
		C293.346,74.75,291.986,71.093,290.137,67.625z M271.912,102.845c-2.17,3.894-5.19,6.976-9.061,9.245
		c-3.866,2.274-8.146,3.406-12.838,3.406c-2.744,0-5.564-0.571-8.46-1.722c-2.89-1.148-5.489-2.718-7.784-4.715
		c-5.289-4.739-7.934-11.027-7.934-18.863c0-4.593,1.086-8.834,3.254-12.728c2.172-3.891,5.157-6.963,8.949-9.208
		c3.791-2.245,8.035-3.368,12.724-3.368c4.542,0,8.685,1.159,12.425,3.482c3.745,2.318,6.676,5.425,8.801,9.319
		c2.119,3.893,3.179,8.01,3.179,12.349C275.167,94.686,274.082,98.955,271.912,102.845z"/>
	<path fill="#FFFFFF" d="M387.707,72.868c-2.227-5.466-5.385-10.295-9.479-14.486c-4.095-4.195-8.854-7.474-14.271-9.843
		c-5.421-2.37-11.228-3.556-17.421-3.556c-6.39,0-12.362,1.159-17.904,3.48c-5.542,2.32-10.412,5.54-14.611,9.656
		c-4.194,4.117-7.479,8.935-9.852,14.447c-2.37,5.515-3.555,11.44-3.555,17.78c0,8.035,2.03,15.522,6.105,22.458
		c4.068,6.936,9.561,12.437,16.479,16.507c6.92,4.065,14.396,6.098,22.44,6.098c6.094,0,11.897-1.135,17.419-3.404
		c5.519-2.272,10.413-5.529,14.682-9.771c4.272-4.242,7.557-9.082,9.855-14.521c2.297-5.442,3.445-11.232,3.445-17.367
		C391.039,84.156,389.927,78.329,387.707,72.868z M367.314,102.995c-2.145,3.893-5.11,6.952-8.898,9.169
		c-3.785,2.225-8.044,3.333-12.778,3.333c-4.484,0-8.611-1.124-12.368-3.369c-3.764-2.244-6.729-5.324-8.897-9.245
		c-2.167-3.918-3.251-8.098-3.251-12.538c0-7.038,2.345-12.926,7.025-17.668c2.195-2.395,4.897-4.291,8.109-5.687
		c3.215-1.398,6.344-2.097,9.382-2.097c4.534,0,8.72,1.137,12.559,3.404c3.838,2.274,6.85,5.381,9.043,9.324
		c2.193,3.94,3.286,8.185,3.286,12.725C370.525,94.887,369.457,99.101,367.314,102.995z"/>
</g>
<g id="Layer_2">
</g>
</svg>
